HIERARCHY
ROOT Hips
{
  OFFSET 3.13124 94.3669 -3.18751
  CHANNELS  6 Xposition Yposition Zposition Zrotation Xrotation Yrotation
  JOINT LeftUpLeg
  {
    OFFSET 8.64259 1.95398 -2.38835
    CHANNELS 3 Zrotation Xrotation Yrotation
    JOINT LeftLeg
    {
      OFFSET 43.7702 0 0
      CHANNELS 3 Zrotation Xrotation Yrotation
      JOINT LeftFoot
      {
        OFFSET 40.6238 0 0
        CHANNELS 3 Zrotation Xrotation Yrotation
        JOINT LeftToeBase
        {
          OFFSET 12.7242 0 0
          CHANNELS 3 Zrotation Xrotation Yrotation
          End Site
          {
            OFFSET 0 0 0
          }
        }
      }
    }
  }
  JOINT RightUpLeg
  {
    OFFSET -8.2249 1.95398 -2.59336
    CHANNELS 3 Zrotation Xrotation Yrotation
    JOINT RightLeg
    {
      OFFSET 43.5653 0 0
      CHANNELS 3 Zrotation Xrotation Yrotation
      JOINT RightFoot
      {
        OFFSET 40.6238 0 0
        CHANNELS 3 Zrotation Xrotation Yrotation
        JOINT RightToeBase
        {
          OFFSET 12.7242 0 0
          CHANNELS 3 Zrotation Xrotation Yrotation
          End Site
          {
            OFFSET 0 0 0
          }
        }
      }
    }
  }
  JOINT Spine
  {
    OFFSET 0.165834 0.87714 6.61349
    CHANNELS 3 Zrotation Xrotation Yrotation
    JOINT Spine1
    {
      OFFSET 7.38962 1.71661e-005 0
      CHANNELS 3 Zrotation Xrotation Yrotation
      JOINT Spine2
      {
        OFFSET 11.9445 1.14441e-005 0
        CHANNELS 3 Zrotation Xrotation Yrotation
        JOINT Spine3
        {
          OFFSET 14.7254 4.19617e-005 0
          CHANNELS 3 Zrotation Xrotation Yrotation
          JOINT Spine4
          {
            OFFSET 10.9679 0 0
            CHANNELS 3 Zrotation Xrotation Yrotation
            JOINT RightShoulder
            {
              OFFSET 2.46616 -1.6653 3.69651
              CHANNELS 3 Zrotation Xrotation Yrotation
              JOINT RightArm
              {
                OFFSET 13.0012 0 0
                CHANNELS 3 Zrotation Xrotation Yrotation
                JOINT RightForeArm
                {
                  OFFSET 28.7848 1.52588e-005 0
                  CHANNELS 3 Zrotation Xrotation Yrotation
                  JOINT RightHand
                  {
                    OFFSET 26.5688 1.52588e-005 0
                    CHANNELS 3 Zrotation Xrotation Yrotation
                    End Site
                    {
                      OFFSET 0 0 0
                    }
                  }
                }
              }
            }
            JOINT LeftShoulder
            {
              OFFSET 2.38034 -1.29275 -3.75231
              CHANNELS 3 Zrotation Xrotation Yrotation
              JOINT LeftArm
              {
                OFFSET 16.3182 6.10352e-005 0
                CHANNELS 3 Zrotation Xrotation Yrotation
                JOINT LeftForeArm
                {
                  OFFSET 27.0901 0 0
                  CHANNELS 3 Zrotation Xrotation Yrotation
                  JOINT LeftHand
                  {
                    OFFSET 24.5451 1.52588e-005 0
                    CHANNELS 3 Zrotation Xrotation Yrotation
                    End Site
                    {
                      OFFSET 0 0 0
                    }
                  }
                }
              }
            }
            JOINT Neck
            {
              OFFSET 5.0226 -0.0266342 0
              CHANNELS 3 Zrotation Xrotation Yrotation
              JOINT Head
              {
                OFFSET 6.69363 2.86102e-005 0
                CHANNELS 3 Zrotation Xrotation Yrotation
                End Site
                {
                  OFFSET 0 0 0
                }
              }
            }
          }
        }
      }
    }
  }
}
MOTION
Frames:	15
Frame Time:	0.0333333
97.4998 97.4607 25.9762 -109.767 -61.2177 -106.995 -171.341 11.4386 90.6498 -28.0555 -2.19889 -0.708355 66.3271 6.35459 3.3612 28.7808 4.45906e-006 2.58474e-006 156.355 -5.34669 69.8708 -22.8912 18.5306 -1.47136 48.9033 19.7626 15.4241 28.7808 1.27766e-005 2.54296e-005 3.05135 8.5398 -91.1097 9.88318 5.78691 -2.87149 -1.77861 5.65497 -3.1239 -24.4127 6.38142 -0.993591 -4.40008 6.38143 -0.993591 84.4391 -41.4065 -112.367 44.8088 36.0728 -45.6392 7.16539 -2.3357 -97.162 -5.37983 -0.320008 -0.0162405 -83.7666 -27.9713 84.9753 -4.14349 34.4202 -43.5773 0.292309 -7.71146 -70.5117 -24.0183 9.55322 -51.975 4.3527 -2.03361 7.60224 -2.64733 -3.32358 -3.57088 
97.3987 97.8394 27.2774 -113.995 -66.3388 -111.284 -172.163 10.4025 89.4687 -26.8032 0.750193 0.697274 65.9041 5.39997 2.85705 28.7808 4.45906e-006 2.58474e-006 156.845 -5.20637 70.7118 -23.572 18.0389 -1.13704 48.6995 21.2899 16.6416 28.7808 1.27766e-005 2.54296e-005 3.50979 8.45061 -90.9965 10.0754 6.7165 -2.73218 -1.58165 6.58977 -3.0261 -24.2546 7.22565 -0.577639 -4.24199 7.22566 -0.577634 82.7793 -37.9089 -116.66 53.47 38.3843 -47.0083 9.15612 -2.80712 -96.8177 -5.37983 -0.320008 -0.0162405 -83.3969 -31.5624 86.3181 -6.28448 33.1926 -46.9065 -4.16671 -7.19754 -69.7353 -22.5873 8.66331 -50.8199 7.77397 -4.66447 10.7329 -5.44128 -6.50627 -9.43065 
97.2696 98.133 28.5108 -119.236 -69.9867 -116.49 -172.544 9.3127 88.6917 -26.2198 3.25197 2.01236 65.7887 4.42798 2.31354 28.7808 4.45906e-006 2.58474e-006 157.001 -5.17662 71.0059 -21.6785 17.9355 -0.907751 48.3887 23.0788 18.1094 28.7808 1.27766e-005 2.54296e-005 3.8284 8.3583 -90.6167 10.2821 7.37742 -2.3781 -1.37066 7.26561 -2.70194 -24.0748 7.74912 -0.0379803 -4.0622 7.74912 -0.0379919 81.6181 -36.1591 -119.51 61.1845 40.3849 -49.2986 11.0852 -2.89379 -96.3813 -5.37983 -0.320008 -0.0162405 -83.2413 -32.2508 86.7184 -10.871 32.7328 -47.2896 -2.05645 -5.94339 -66.9931 -24.6908 10.133 -53.1312 8.99039 -7.15806 10.5142 -7.01634 -8.75925 -12.189 
97.1625 98.6658 29.6234 -125.276 -73.0677 -122.249 -172.845 7.44618 88.4104 -23.6904 5.17647 2.9102 65.054 4.06282 2.13459 28.7808 4.45906e-006 2.58474e-006 157.351 -3.91593 71.5083 -19.9407 15.3582 -1.73253 45.4629 22.545 18.6994 28.7808 1.27766e-005 2.54296e-005 3.85492 8.23139 -90.5146 10.5168 7.46504 -2.03306 -1.1347 7.36832 -2.36124 -23.8434 7.72892 0.317881 -3.83073 7.72892 0.317875 80.8915 -35.7731 -120.97 66.6144 42.917 -51.9738 12.6999 -4.08415 -96.2305 -5.37983 -0.320008 -0.0162405 -83.4891 -32.3904 86.2708 -15.0292 32.6608 -46.3834 -3.15407 -4.97441 -64.7577 -24.753 8.86961 -47.6064 8.9976 -8.87078 9.99643 -7.81457 -10.1684 -13.6647 
97.0139 99.1637 30.6852 -131.017 -75.5966 -127.16 -172.81 6.05745 88.7551 -21.4022 6.41843 3.65294 64.5489 4.02968 2.13656 28.7808 4.45906e-006 2.58474e-006 158.143 -1.86128 72.5584 -18.5318 12.8968 -2.45775 41.3618 19.9656 17.96 28.7808 1.27766e-005 2.54296e-005 3.71538 8.02132 -90.4758 10.9147 7.21917 -1.77813 -0.737817 7.1339 -2.09562 -23.4351 7.41799 0.485789 -3.42243 7.418 0.485784 80.6152 -37.6819 -120.454 65.1373 45.8291 -51.3754 12.883 -4.09919 -96.5159 -5.37983 -0.320008 -0.0162405 -84.1614 -31.0156 84.7565 -18.8105 32.6582 -45.3904 0.0192869 -2.70181 -61.5918 -26.0711 8.7512 -44.8237 7.42456 -10.1689 7.94985 -7.65721 -10.9302 -13.565 
96.8032 99.454 31.6292 -137.195 -77.5658 -132.36 -172.436 5.84091 89.3329 -21.3547 8.02548 4.77485 64.6038 3.25872 1.6808 28.7808 4.45906e-006 2.58474e-006 158.697 -0.533738 73.2445 -15.3758 11.3363 -2.95627 35.8453 20.1624 20.0373 28.7808 1.27766e-005 2.54296e-005 3.42076 7.86652 -90.2149 11.2335 6.62986 -1.60649 -0.42183 6.55272 -1.89788 -23.0935 6.80476 0.469647 -3.08086 6.80476 0.469646 81.7136 -38.8212 -118.045 63.3019 51.4872 -50.4534 13.429 -4.68084 -96.6724 -5.37983 -0.320008 -0.0162405 -84.7169 -28.6303 83.2004 -20.2091 33.2339 -46.389 5.89101 0.792779 -58.6595 -27.8345 8.73298 -42.0735 5.29759 -10.7874 5.98582 -6.74875 -11.1533 -13.8167 
96.5924 99.7241 32.536 -145.303 -79.2966 -139.324 -171.867 5.20954 90.1754 -20.4623 9.76002 5.66655 64.9174 3.88316 2.02761 28.7808 4.45906e-006 2.58474e-006 159.141 0.952015 73.7778 -12.481 10.724 -3.35132 28.307 19.967 22.726 28.7808 1.27766e-005 2.54296e-005 2.94347 7.61938 -90.0344 11.7188 5.6772 -1.39767 0.0592375 5.61017 -1.6469 -22.5759 5.8339 0.379029 -2.56325 5.8339 0.379022 82.4918 -42.1163 -115.273 57.3196 59.2321 -47.615 14.1405 -4.78343 -96.7403 -5.37983 -0.320008 -0.0162405 -85.3044 -25.3699 81.2516 -19.6485 35.2896 -48.0295 15.4223 6.30316 -57.1811 -30.2722 9.41713 -41.393 -0.513191 -10.8862 2.1077 -2.84464 -10.9468 -13.2763 
96.3474 99.9451 33.4245 -153.668 -80.5833 -146.56 -171.179 5.46898 91.2233 -20.8872 9.67695 6.14716 65.235 2.76133 1.38127 28.7808 4.45906e-006 2.58474e-006 159.684 2.46769 74.5233 -9.40993 6.87037 -4.37951 19.9945 19.1994 25.4368 28.7808 1.27766e-005 2.54296e-005 2.36531 7.50116 -89.6895 11.9523 4.57738 -1.11475 0.288786 4.52387 -1.31552 -22.3113 4.70032 0.315536 -2.29866 4.70032 0.315529 86.1306 -44.0755 -108.61 54.3062 65.7477 -47.9104 14.1477 -4.42778 -95.1463 -5.37983 -0.320008 -0.0162405 -85.3513 -21.4741 80.0962 -15.6446 37.8583 -53.541 21.8041 10.265 -56.9296 -34.733 10.4682 -39.6868 -4.13745 -10.1631 -1.99481 0.173073 -10.0934 -12.0296 
95.9211 99.76 34.2898 -159.519 -81.509 -151.708 -170.351 6.05552 92.0827 -21.9084 9.86945 6.36231 66.9126 4.39811 2.23699 28.7808 4.45906e-006 2.58474e-006 160.412 4.22261 75.0671 -6.43235 4.86863 -4.97982 12.1548 19.798 30.1398 28.7808 1.27766e-005 2.54296e-005 1.78509 7.35201 -89.0612 12.2627 3.52391 -0.886702 0.596147 3.48147 -1.04111 -21.9774 3.62727 0.214769 -1.96478 3.62728 0.21476 91.8264 -45.4846 -98.9637 44.7976 70.2475 -43.0963 12.9806 -3.08457 -92.8744 -5.37983 -0.320008 -0.0162405 -86.3679 -18.6509 76.8918 -10.1966 39.8267 -58.4607 23.5299 13.2239 -56.6553 -34.9091 10.9428 -41.0019 -8.73703 -8.8048 -5.93764 3.65156 -8.889 -10.4594 
95.2599 99.2408 35.1534 -162.913 -82.1103 -154.786 -169.543 7.25931 92.7481 -24.4536 9.97899 6.66282 69.5326 4.66585 2.2842 28.7808 4.45906e-006 2.58474e-006 161.66 6.68311 75.4008 -6.21006 7.23969 -4.56563 9.45726 21.1643 33.672 28.7808 1.27766e-005 2.54296e-005 1.04548 7.19131 -88.0527 12.5787 2.30809 -0.577707 0.909614 2.28043 -0.67878 -21.642 2.37495 0.143056 -1.62934 2.37496 0.143067 97.7343 -45.4369 -89.303 36.0355 72.3426 -38.9521 11.3254 -1.35217 -90.3609 -5.37983 -0.320008 -0.0162405 -87.3015 -16.2311 73.7496 -4.71154 41.615 -62.6003 26.4751 14.5633 -57.8404 -40.4192 12.1789 -38.9818 -13.0767 -6.39867 -9.98121 6.41721 -6.69523 -7.76995 
94.43 98.9918 35.8576 -162.061 -83.1078 -153.498 -168.896 10.1284 93.3723 -28.8236 11.1792 7.59055 70.4693 2.98629 1.36292 28.7808 4.45906e-006 2.58474e-006 163.129 9.32242 76.3226 -5.7556 9.56033 -4.03118 6.75925 21.9139 36.547 28.7808 1.27766e-005 2.54296e-005 0.135741 7.03029 -87.0674 12.8456 0.92572 -0.343705 1.17495 0.909698 -0.384132 -21.3628 0.986209 -0.0495751 -1.35015 0.986218 -0.0495773 103.431 -42.9478 -79.8545 35.487 71.7732 -42.8166 9.44689 -0.245472 -87.0998 -5.37983 -0.320008 -0.0162405 -88.4658 -14.817 70.2878 -1.69352 42.6081 -63.854 26.5515 15.7492 -57.6073 -43.0757 13.4992 -39.9827 -15.5047 -3.35502 -12.9276 7.67822 -3.67646 -4.40922 
93.6986 98.7457 36.5858 -157.51 -83.8848 -148.998 -168.734 11.4666 93.5991 -30.6287 11.6251 8.12394 71.4159 1.55509 0.636911 28.7808 4.45906e-006 2.58474e-006 164.202 11.9374 76.9452 -5.5395 14.2414 -3.06627 4.48769 22.4495 38.9715 28.7808 1.27766e-005 2.54296e-005 -0.881912 6.89478 -86.3898 13.0123 -0.600621 0.091483 1.34153 -0.596014 0.117821 -21.1947 -0.600342 -0.0932582 -1.18201 -0.600351 -0.0932661 107.181 -39.322 -73.057 42.5383 69.58 -54.544 7.49908 1.22522 -83.7207 -5.37983 -0.320008 -0.0162405 -89.5603 -13.7928 67.0755 0.116747 42.969 -63.8513 23.8763 17.4038 -56.0538 -41.6372 13.8729 -42.2594 -17.4246 0.520159 -15.7138 8.12194 0.324685 0.151322 
92.9476 98.5381 37.1228 -150.431 -84.5318 -141.887 -168.565 12.5093 93.8741 -31.6152 12.1087 8.48193 72.2447 2.09185 0.884237 28.7808 4.45906e-006 2.58474e-006 165.227 14.1964 77.7619 -5.72932 19.0028 -2.04205 3.40648 22.8839 40.4548 28.7808 1.27766e-005 2.54296e-005 -2.00187 6.69786 -85.8306 13.2732 -2.31263 0.674375 1.60413 -2.28072 0.775537 -20.9476 -2.40834 -0.0522401 -0.934979 -2.40834 -0.0522459 109.263 -35.7808 -68.7151 47.9756 65.475 -64.3163 5.4731 2.2647 -80.5209 -5.37983 -0.320008 -0.0162405 -90.4285 -12.3325 64.0521 -1.5653 44.3005 -60.1605 20.4596 17.2397 -54.5689 -40.2108 13.1786 -41.8168 -18.2967 4.96959 -18.3007 6.15418 4.99151 5.35616 
92.2295 98.2089 37.4573 -139.236 -84.2677 -131.175 -168.482 13.2982 93.7888 -32.9235 11.4539 8.36894 72.932 2.42194 1.01787 28.7808 4.45906e-006 2.58474e-006 165.971 16.1802 78.1025 -6.60128 23.6093 -0.761158 0.839487 23.7591 43.8968 28.7808 1.27766e-005 2.54296e-005 -2.99436 6.56773 -85.1093 13.3879 -3.73227 1.30727 1.72151 -3.67112 1.47044 -20.8566 -3.95236 0.123457 -0.843974 -3.95236 0.123449 110.196 -31.8833 -66.1008 50.5643 62.2451 -70.0297 4.09352 2.89971 -78.3357 -5.37983 -0.320008 -0.0162405 -90.7342 -11.4508 62.7049 -4.14422 45.7618 -55.7714 16.2452 15.555 -53.5936 -36.6881 10.2831 -37.1562 -15.9772 8.72714 -21.326 1.22586 9.10136 11.2667 
91.8487 98.3142 37.6693 -132.773 -82.7539 -124.48 -168.269 12.2919 94.2671 -32.2853 10.2201 8.21517 73.0034 3.32728 1.45826 28.7808 4.45906e-006 2.58474e-006 166.604 17.3882 79.2047 -6.32987 18.9772 -2.01021 -1.45228 22.4857 43.7437 28.7808 1.27766e-005 2.54296e-005 -3.54211 6.64268 -85.0502 13.1858 -4.62664 1.69919 1.52174 -4.54738 1.9015 -21.0792 -4.92294 0.226962 -1.0666 -4.92295 0.226949 110.859 -27.7132 -63.6575 52.4817 59.9769 -73.9961 3.99617 2.92499 -78.5045 -5.37983 -0.320008 -0.0162405 -90.7074 -11.2728 62.6499 -9.11716 45.9523 -49.7516 19.9674 15.1609 -55.0368 -36.2874 9.7091 -36.0276 -11.2167 11.065 -23.2313 -4.23495 11.8055 15.1042 
